<?xml version="1.0" standalone="no"?>
<!DOCTYPE svg PUBLIC "-//W3C//DTD SVG 20010904//EN"
 "http://www.w3.org/TR/2001/REC-SVG-20010904/DTD/svg10.dtd">
<svg version="1.0" xmlns="http://www.w3.org/2000/svg"
 width="500.000000pt" height="500.000000pt" viewBox="0 0 500.000000 500.000000"
 preserveAspectRatio="xMidYMid meet">

<g transform="translate(0.000000,500.000000) scale(0.100000,-0.100000)"
fill="#000000" stroke="none">
<path d="M2440 3723 c-144 -23 -290 -69 -382 -121 -110 -61 -263 -191 -325
-275 -19 -26 -40 -46 -45 -45 -6 2 -20 27 -32 56 -34 80 -42 82 -49 14 -4 -38
-1 -79 7 -113 13 -50 13 -58 -7 -104 -39 -94 -51 -85 -67 47 -7 57 -17 107
-21 112 -5 5 -28 12 -51 15 -40 6 -43 8 -48 42 -4 20 -29 74 -57 120 -28 46
-60 103 -72 126 -26 51 -38 60 -59 40 -12 -13 -13 -19 -2 -31 7 -9 10 -25 7
-36 -3 -11 -1 -20 4 -20 5 0 9 -8 9 -18 0 -10 4 -22 9 -28 9 -8 37 -78 101
-241 19 -51 45 -93 86 -139 38 -43 58 -74 56 -86 -2 -11 6 -30 18 -43 20 -21
20 -26 9 -65 -11 -35 -16 -40 -33 -36 -12 3 -29 6 -38 6 -12 0 -18 10 -20 33
-3 28 -7 32 -36 35 -36 4 -75 51 -92 112 -5 20 -16 44 -23 54 -12 16 -18 17
-55 5 -41 -12 -41 -12 -82 29 -39 39 -76 60 -86 49 -10 -9 46 -106 94 -164 39
-46 64 -66 121 -92 51 -23 71 -38 71 -51 0 -12 -8 -20 -22 -22 -19 -2 -24 -11
-28 -43 -6 -46 11 -43 -175 -25 -49 5 -91 8 -93 6 -9 -10 193 -131 251 -150
14 -5 18 -15 15 -48 -3 -42 -4 -43 -53 -57 -27 -7 -77 -17 -110 -20 l-60 -7
55 -17 c30 -10 73 -20 95 -24 67 -10 76 -19 73 -66 -3 -38 -7 -44 -48 -67
l-45 -25 45 -5 c41 -5 45 -8 50 -35 l5 -30 96 4 c53 2 99 -1 102 -6 6 -9 -21
-71 -42 -97 -17 -21 -13 -20 42 3 25 11 48 16 52 13 16 -16 33 -72 28 -91 -4
-15 -1 -21 10 -21 8 0 29 -23 47 -51 17 -28 54 -80 81 -116 27 -35 49 -71 49
-78 0 -8 17 -19 39 -25 21 -5 50 -19 64 -30 14 -11 28 -20 31 -20 14 0 102
-63 150 -107 82 -74 97 -85 130 -94 17 -4 76 -19 131 -34 146 -38 271 -43 414
-16 62 12 149 33 193 47 44 14 82 23 84 21 3 -2 19 9 35 24 22 21 41 29 66 29
27 0 34 3 29 15 -3 9 7 24 27 39 30 23 38 25 106 19 54 -4 72 -3 67 5 -4 6
-22 14 -41 18 -20 3 -37 10 -40 14 -9 14 57 79 92 91 24 8 31 14 22 19 -9 6
10 43 75 139 48 72 94 131 102 131 10 0 13 7 8 25 -8 30 13 85 32 85 7 0 36
-9 64 -20 48 -19 50 -19 41 -1 -6 10 -22 26 -36 35 -44 29 -29 36 74 36 l99 0
7 30 c4 16 4 34 0 40 -8 13 36 30 78 31 l32 1 -28 10 c-47 17 -77 52 -80 93
l-2 37 100 27 c140 38 143 41 30 34 -100 -6 -101 -5 -112 19 -6 14 -9 44 -6
66 5 37 10 43 57 67 70 36 189 117 194 133 4 12 -77 -13 -120 -38 -23 -13 -65
-13 -73 0 -3 6 -17 10 -30 10 -14 0 -29 8 -35 20 -8 15 -23 20 -75 22 -74 3
-89 18 -32 32 29 8 39 16 44 35 4 21 19 32 71 55 37 16 73 34 79 39 7 5 52 61
100 126 48 64 95 124 104 133 10 10 30 34 45 54 22 28 25 37 14 44 -10 6 -47
-25 -132 -108 -137 -134 -134 -132 -173 -131 -26 0 -27 2 -10 9 18 8 18 9 -6
9 -14 1 -32 -5 -41 -11 -15 -13 -69 -100 -81 -130 -3 -9 -18 -18 -34 -20 -23
-2 -29 -9 -33 -36 -4 -29 -11 -36 -43 -47 -36 -12 -39 -12 -46 8 -18 49 -22
67 -13 67 5 0 21 9 36 21 20 16 24 24 16 38 -7 14 1 29 41 72 50 54 99 141 99
176 0 10 7 31 15 47 8 15 15 34 15 42 0 7 9 29 20 49 11 20 20 46 20 58 0 13
4 27 9 33 5 5 12 29 16 54 4 24 9 48 12 53 3 5 -2 7 -12 5 -16 -3 -146 -241
-159 -291 -2 -10 -14 -21 -25 -24 -11 -3 -22 -11 -25 -19 -4 -10 -15 -13 -37
-9 -17 3 -36 1 -43 -4 -12 -10 -16 -11 -46 -11 -11 0 -20 -5 -20 -11 0 -5 4
-7 10 -4 6 3 7 -1 4 -9 -3 -9 4 -27 15 -42 15 -19 20 -38 18 -70 -3 -59 -22
-63 -48 -11 -12 23 -28 50 -36 59 -14 16 -13 23 10 70 13 29 28 65 31 81 4 15
11 27 16 27 6 0 10 28 10 63 -1 59 -1 61 -15 37 l-14 -25 -1 31 c0 16 5 35 12
42 6 6 9 15 5 19 -18 17 -32 -22 -31 -83 1 -54 -2 -64 -16 -64 -12 0 -22 -18
-35 -60 -10 -33 -21 -60 -24 -60 -11 0 -26 15 -85 83 -97 111 -248 221 -382
277 -144 60 -384 94 -514 73z m230 -123 c24 -4 -14 -9 -120 -14 -138 -7 -245
-21 -305 -41 -15 -5 -16 -4 -5 3 8 5 44 18 80 27 36 9 72 19 80 22 8 4 21 7
28 9 8 1 17 5 20 8 7 7 170 -3 222 -14z m73 -17 c-7 -2 -19 -2 -25 0 -7 3 -2
5 12 5 14 0 19 -2 13 -5z m-213 -145 c0 -10 3 -9 9 1 10 16 76 7 105 -15 16
-11 17 -17 8 -26 -9 -9 -12 -8 -12 6 0 9 -4 14 -10 11 -5 -3 -10 -3 -10 2 0 4
-27 8 -60 8 -33 0 -60 -4 -60 -8 0 -5 -5 -5 -12 -1 -7 5 -5 11 7 21 23 16 35
17 35 1z m-65 -42 c-11 -8 -23 -12 -27 -10 -4 3 -5 -2 -2 -10 4 -10 1 -16 -10
-16 -13 0 -14 4 -4 25 6 14 17 25 25 25 7 0 13 5 13 12 0 9 3 9 12 0 9 -9 8
-15 -7 -26z m166 -19 c19 -12 41 -36 49 -52 19 -38 19 -137 0 -160 -12 -14
-12 -18 1 -26 11 -7 6 -16 -24 -44 -21 -19 -46 -35 -55 -36 -9 0 -25 -2 -34
-4 -10 -2 -20 1 -23 6 -3 4 7 11 22 14 41 8 96 38 101 54 3 9 -6 6 -27 -8 -44
-32 -99 -37 -145 -16 -49 23 -76 64 -83 124 -5 42 -2 57 21 95 15 25 39 52 54
60 41 23 103 20 143 -7z m75 -12 c-3 -8 -1 -15 5 -15 6 0 8 -4 4 -9 -3 -5 2
-16 10 -24 19 -20 19 -34 0 -34 -8 0 -15 8 -15 16 0 9 -7 27 -16 39 -15 22
-12 42 8 42 5 0 8 -7 4 -15z m-304 -47 c-15 -15 -24 -6 -16 16 5 12 10 14 17
7 8 -8 8 -14 -1 -23z m942 -3 c3 -8 1 -15 -4 -15 -6 0 -10 7 -10 15 0 8 2 15
4 15 2 0 6 -7 10 -15z m-944 -19 c0 -11 -19 -15 -25 -6 -3 5 1 10 9 10 9 0 16
-2 16 -4z m-12 -56 c-3 -17 -1 -33 4 -36 14 -9 9 -24 -8 -24 -10 0 -14 6 -11
15 4 8 3 17 -2 19 -4 3 -7 15 -5 28 3 30 2 28 15 28 7 0 9 -12 7 -30z m350 0
c-1 -16 -5 -30 -10 -30 -4 0 -8 14 -8 30 0 17 4 30 9 30 5 0 9 -13 9 -30z m0
-52 c-6 -18 -28 -21 -28 -4 0 9 7 16 16 16 9 0 14 -5 12 -12z m-240 -102 c39
-20 43 -40 5 -24 -33 14 -83 57 -83 72 0 5 10 0 23 -11 12 -11 37 -28 55 -37z
m-110 -23 c16 -16 16 -16 -5 -11 -16 4 -23 2 -23 -8 0 -8 -4 -14 -10 -14 -5 0
-10 11 -10 25 0 29 23 33 48 8z m372 -12 c0 -29 -1 -30 -65 -36 -44 -5 -77
-15 -101 -31 -43 -30 -45 -30 -88 0 -45 30 -67 52 -59 60 4 3 0 6 -7 6 -7 0
-11 2 -8 5 3 3 31 -6 62 -21 51 -24 60 -25 84 -14 15 8 39 13 55 12 15 0 25 3
22 8 -3 5 14 14 37 20 24 6 48 13 53 15 6 2 11 4 13 4 1 1 2 -12 2 -28z m-102
-218 c-10 -2 -28 -2 -40 0 -13 2 -5 4 17 4 22 1 32 -1 23 -4z m-1046 -133 c16
-45 28 -69 32 -60 3 8 15 40 25 70 14 40 25 56 40 58 34 5 34 -20 0 -104 -24
-59 -33 -101 -38 -169 -6 -89 -6 -90 -33 -93 l-28 -3 0 69 c0 42 -7 85 -16
108 -32 76 -64 169 -64 187 0 14 6 18 28 15 24 -3 30 -11 54 -78z m1828 -10
l0 -80 40 0 40 0 0 80 0 80 30 0 30 0 0 -185 0 -185 -30 0 -30 0 0 80 0 80
-40 0 -40 0 0 -81 0 -80 -27 3 -28 3 -3 174 c-3 182 -1 190 41 191 15 0 17
-10 17 -80z m-1536 58 c3 -7 18 -76 35 -153 17 -77 33 -150 37 -162 6 -20 3
-23 -24 -23 -23 0 -31 5 -36 25 -5 21 -12 25 -46 25 -34 0 -41 -4 -46 -25 -5
-20 -13 -25 -36 -25 -23 0 -28 4 -24 18 3 9 10 40 16 67 6 28 22 98 36 158 26
106 27 107 55 107 16 0 31 -6 33 -12z m181 -86 l40 -93 3 91 3 91 27 -3 27 -3
0 -165 c0 -163 0 -165 -23 -168 -19 -3 -27 7 -52 65 -64 143 -59 140 -59 30
l-1 -98 -27 3 -28 3 -3 160 c-1 87 0 165 3 173 3 7 15 12 27 10 18 -2 31 -22
63 -96z m1038 91 c3 -5 -17 -42 -43 -83 l-47 -75 49 -92 49 -93 -28 0 c-26 0
-33 7 -63 70 -19 39 -37 70 -42 70 -4 0 -8 -31 -8 -70 0 -68 -1 -70 -25 -70
l-25 0 0 170 0 170 25 0 c23 0 24 -4 27 -62 l3 -63 30 49 c17 27 38 58 48 68
17 18 42 24 50 11z m199 -10 c10 -9 18 -30 18 -50 0 -30 -3 -33 -30 -33 -25 0
-30 4 -30 25 0 22 -4 25 -34 25 -71 0 -58 -53 30 -115 l64 -46 0 -54 c0 -72
-14 -85 -95 -85 -75 0 -95 14 -95 66 0 33 2 35 28 32 19 -2 27 -9 27 -23 0
-16 8 -21 38 -23 37 -3 37 -3 37 35 0 35 -5 42 -65 86 -65 48 -65 49 -65 97 0
39 4 52 22 64 31 22 126 21 150 -1z m-932 -18 c0 -20 -5 -25 -25 -25 l-25 0 0
-140 0 -140 -30 0 -30 0 0 140 0 140 -25 0 c-20 0 -25 5 -25 25 0 25 1 25 80
25 79 0 80 0 80 -25z m218 9 c20 -14 23 -23 20 -76 -3 -57 -11 -73 -45 -84 -2
0 8 -34 22 -74 14 -40 25 -75 25 -77 0 -2 -13 -3 -29 -3 -27 0 -30 5 -55 79
-33 99 -33 109 2 113 24 3 27 7 27 43 l0 40 -40 0 -40 0 -3 -137 -3 -138 -24
0 -25 0 0 165 0 165 73 0 c50 0 80 -5 95 -16z m245 -141 c20 -87 37 -161 37
-165 0 -5 -12 -8 -26 -8 -17 0 -28 6 -31 20 -4 16 -14 20 -48 20 -34 0 -44 -4
-48 -20 -3 -14 -14 -20 -31 -20 -14 0 -26 5 -26 11 0 10 67 282 75 307 2 6 17
12 33 12 l28 0 37 -157z m-699 -510 c-9 -36 -14 -42 -14 -15 0 12 -5 22 -11
22 -5 0 -7 5 -4 10 3 6 13 10 21 10 11 0 13 -7 8 -27z m121 17 c3 -5 1 -10 -5
-10 -6 0 -9 -4 -6 -9 4 -5 0 -12 -6 -14 -7 -3 -4 -6 7 -6 16 -1 17 -3 5 -10
-19 -13 -30 -5 -30 23 0 33 21 49 35 26z m107 -8 c-7 -2 -12 -10 -12 -18 0 -9
5 -12 10 -9 6 3 10 1 10 -4 0 -6 -9 -11 -20 -11 -14 0 -20 7 -20 24 0 24 17
38 35 28 5 -3 4 -7 -3 -10z m248 11 c-1 -5 -7 -19 -15 -33 l-14 -25 -1 33 c0
22 5 32 15 32 8 0 15 -3 15 -7z m115 -3 c3 -5 1 -10 -5 -10 -6 0 -9 -4 -6 -9
4 -5 0 -12 -6 -14 -7 -3 -4 -6 7 -6 14 -1 16 -4 8 -12 -16 -16 -33 -2 -33 25
0 33 21 49 35 26z m106 -8 c-9 -3 -8 -7 4 -16 14 -10 15 -14 3 -23 -9 -8 -19
-9 -28 -3 -12 8 -11 10 5 10 15 0 17 2 6 9 -8 5 -11 16 -8 26 4 9 12 13 19 9
9 -6 9 -9 -1 -12z m125 2 c-3 -9 -6 -23 -6 -31 0 -22 -6 -14 -14 20 -5 21 -3
27 10 27 11 0 14 -5 10 -16z m-469 -3 c10 9 13 6 13 -17 0 -21 -3 -25 -12 -16
-8 8 -15 9 -25 1 -10 -9 -13 -6 -13 17 0 21 3 25 12 16 8 -8 15 -9 25 -1z
m-740 -128 c-3 -10 -5 -4 -5 12 0 17 2 24 5 18 2 -7 2 -21 0 -30z m623 13 c0
-8 -5 -18 -11 -22 -8 -4 -7 -9 2 -15 11 -7 10 -9 -3 -9 -12 0 -16 8 -16 30 1
30 28 45 28 16z m120 -16 c0 -23 -4 -30 -20 -30 -14 0 -20 7 -20 23 0 27 7 37
27 37 8 0 13 -12 13 -30z m120 16 c0 -8 -5 -18 -11 -22 -8 -4 -7 -9 2 -15 10
-6 8 -9 -8 -9 -24 0 -33 29 -10 31 9 0 9 2 -1 6 -15 6 -6 23 14 23 8 0 14 -6
14 -14z m120 -16 c0 -23 -4 -30 -20 -30 -11 0 -20 5 -20 11 0 5 5 7 11 3 8 -5
8 -1 0 14 -15 28 -14 32 9 32 16 0 20 -7 20 -30z m-891 -63 c23 -48 25 -57 12
-57 -12 0 -41 58 -41 82 0 27 6 22 29 -25z m71 -71 c0 -11 -19 -15 -25 -6 -3
5 1 10 9 10 9 0 16 -2 16 -4z m789 -222 c2 -2 -7 -12 -20 -23 -26 -22 -54 -27
-64 -11 -3 6 -25 10 -47 10 -23 0 -55 4 -72 10 -93 29 -91 30 54 24 80 -4 147
-8 149 -10z m11 -63 c0 -11 -31 -24 -39 -16 -3 3 1 10 9 15 19 12 30 12 30 1z"/>
<path d="M2518 3384 c-7 -6 14 -64 23 -64 4 0 7 16 7 35 0 32 -14 46 -30 29z"/>
<path d="M2564 3355 c0 -41 8 -45 25 -9 12 27 8 44 -13 44 -7 0 -12 -14 -12
-35z"/>
<path d="M2463 3346 c-30 -32 -29 -42 7 -55 34 -11 38 -6 13 21 -9 10 -13 21
-9 25 4 4 16 -3 26 -17 20 -26 25 -16 14 28 -8 28 -23 28 -51 -2z"/>
<path d="M2602 3345 c-18 -39 -14 -51 8 -27 26 28 45 29 30 3 -5 -11 -15 -21
-22 -24 -7 -2 -10 -7 -7 -11 10 -10 59 12 59 27 0 13 -40 57 -52 57 -2 0 -10
-11 -16 -25z"/>
<path d="M2521 3286 c-9 -11 -7 -12 13 -9 13 3 27 0 30 -6 4 -5 13 -8 22 -4
11 4 12 9 3 19 -15 18 -53 18 -68 0z"/>
<path d="M2427 3283 c-17 -16 -4 -29 28 -29 41 0 46 12 9 26 -30 12 -29 12
-37 3z"/>
<path d="M2648 3278 c-39 -13 -35 -26 7 -26 36 0 40 4 27 24 -5 7 -16 8 -34 2z"/>
<path d="M2546 3242 c-4 -7 -4 -12 1 -12 4 0 0 -5 -10 -11 -22 -13 -13 -29 17
-29 15 0 26 7 29 20 3 13 0 20 -8 20 -7 0 -15 5 -17 12 -3 9 -6 9 -12 0z"/>
<path d="M2420 3232 c1 -24 18 -33 43 -21 37 17 34 25 -8 26 -19 1 -35 -2 -35
-5z"/>
<path d="M2620 3228 c0 -4 14 -14 30 -23 27 -14 30 -14 30 0 0 8 -1 18 -2 22
-4 9 -58 10 -58 1z"/>
<path d="M2451 3191 c-10 -7 -11 -13 -1 -30 14 -26 30 -23 41 7 8 20 6 21 -11
12 -16 -9 -18 -8 -14 5 7 17 5 18 -15 6z"/>
<path d="M2640 3185 c14 -17 13 -17 -9 -10 -20 6 -23 5 -17 -10 5 -15 4 -16
-9 -5 -13 11 -15 9 -15 -11 -1 -23 -1 -23 -12 -4 -11 19 -11 19 -19 0 -7 -17
-8 -18 -8 -2 -1 19 -21 24 -22 5 0 -7 -4 -5 -8 5 -6 17 -8 17 -26 -3 -16 -18
-17 -23 -5 -30 50 -32 134 -13 167 37 13 20 12 23 -9 34 -22 11 -22 11 -8 -6z"/>
<path d="M2718 3053 c7 -3 16 -2 19 1 4 3 -2 6 -13 5 -11 0 -14 -3 -6 -6z"/>
<path d="M2678 3043 c7 -3 16 -2 19 1 4 3 -2 6 -13 5 -11 0 -14 -3 -6 -6z"/>
<path d="M1856 2598 c-4 -24 -9 -53 -13 -65 -4 -20 -1 -23 27 -23 25 0 30 3
26 18 -3 9 -8 38 -12 65 -8 58 -19 60 -28 5z"/>
<path d="M2772 2601 c-17 -74 -16 -81 13 -81 29 0 31 12 12 84 l-13 49 -12
-52z"/>
<path d="M2480 1961 c0 -6 5 -13 10 -16 6 -3 10 1 10 9 0 9 -4 16 -10 16 -5 0
-10 -4 -10 -9z"/>
</g>
</svg>
